<?xml version="1.0" encoding="UTF-8" standalone="no"?>
<!-- Created with Inkscape (http://www.inkscape.org/) -->

<svg
   xmlns:dc="http://purl.org/dc/elements/1.1/"
   xmlns:cc="http://creativecommons.org/ns#"
   xmlns:rdf="http://www.w3.org/1999/02/22-rdf-syntax-ns#"
   xmlns:svg="http://www.w3.org/2000/svg"
   xmlns="http://www.w3.org/2000/svg"
   xmlns:sodipodi="http://sodipodi.sourceforge.net/DTD/sodipodi-0.dtd"
   xmlns:inkscape="http://www.inkscape.org/namespaces/inkscape"
   width="210mm"
   height="297mm"
   viewBox="0 0 210 297"
   version="1.1"
   id="svg8"
   inkscape:version="0.92.2 (5c3e80d, 2017-08-06)"
   sodipodi:docname="chicocarreboque.svg"
   inkscape:export-filename="/Users/paulosales/chicocarreboque/images/chicocarreboque.png"
   inkscape:export-xdpi="162.94156"
   inkscape:export-ydpi="162.94156">
  <defs
     id="defs2">
    <inkscape:perspective
       sodipodi:type="inkscape:persp3d"
       inkscape:vp_x="0 : 148.5 : 1"
       inkscape:vp_y="0 : 1000 : 0"
       inkscape:vp_z="210 : 148.5 : 1"
       inkscape:persp3d-origin="105 : 99 : 1"
       id="perspective4619" />
  </defs>
  <sodipodi:namedview
     id="base"
     pagecolor="#ffffff"
     bordercolor="#666666"
     borderopacity="1.0"
     inkscape:pageopacity="0.0"
     inkscape:pageshadow="2"
     inkscape:zoom="0.9899495"
     inkscape:cx="203.74183"
     inkscape:cy="743.10641"
     inkscape:document-units="mm"
     inkscape:current-layer="layer1"
     showgrid="false"
     inkscape:window-width="1280"
     inkscape:window-height="751"
     inkscape:window-x="0"
     inkscape:window-y="23"
     inkscape:window-maximized="0" />
  <metadata
     id="metadata5">
    <rdf:RDF>
      <cc:Work
         rdf:about="">
        <dc:format>image/svg+xml</dc:format>
        <dc:type
           rdf:resource="http://purl.org/dc/dcmitype/StillImage" />
        <dc:title />
      </cc:Work>
    </rdf:RDF>
  </metadata>
  <g
     inkscape:label="Camada 1"
     inkscape:groupmode="layer"
     id="layer1"
     style="display:inline">
    <g
       id="g5126">
      <path
         id="path888"
         transform="scale(0.26458333)"
         d="M 466.43164 486.84961 C 408.60018 486.84961 361.46875 533.97522 361.46875 591.80664 C 361.46875 649.63806 408.60018 696.76172 466.43164 696.76172 C 524.26306 696.76172 571.38867 649.63806 571.38867 591.80664 C 571.38867 584.42395 570.61643 577.21575 569.15625 570.25781 L 545.93359 570.83984 C 547.68132 577.52913 548.61523 584.55546 548.61523 591.80664 C 548.61523 637.33135 511.95635 673.98828 466.43164 673.98828 C 420.90693 673.98828 384.24219 637.33135 384.24219 591.80664 C 384.24219 546.28193 420.90693 509.61523 466.43164 509.61523 C 488.15209 509.61523 507.84256 517.97564 522.50781 531.64844 L 539.7793 516.84375 C 520.83756 498.30569 494.93787 486.84961 466.43164 486.84961 z "
         style="color:#000000;font-style:normal;font-variant:normal;font-weight:normal;font-stretch:normal;font-size:medium;line-height:normal;font-family:sans-serif;font-variant-ligatures:normal;font-variant-position:normal;font-variant-caps:normal;font-variant-numeric:normal;font-variant-alternates:normal;font-feature-settings:normal;text-indent:0;text-align:start;text-decoration:none;text-decoration-line:none;text-decoration-style:solid;text-decoration-color:#000000;letter-spacing:normal;word-spacing:normal;text-transform:none;writing-mode:lr-tb;direction:ltr;text-orientation:mixed;dominant-baseline:auto;baseline-shift:baseline;text-anchor:start;white-space:normal;shape-padding:0;clip-rule:nonzero;display:inline;overflow:visible;visibility:visible;opacity:1;isolation:auto;mix-blend-mode:normal;color-interpolation:sRGB;color-interpolation-filters:linearRGB;solid-color:#000000;solid-opacity:1;vector-effect:none;fill:#ff0000;fill-opacity:1;fill-rule:nonzero;stroke:none;stroke-width:22.77165413;stroke-linecap:butt;stroke-linejoin:miter;stroke-miterlimit:4;stroke-dasharray:none;stroke-dashoffset:0;stroke-opacity:1;color-rendering:auto;image-rendering:auto;shape-rendering:auto;text-rendering:auto;enable-background:accumulate" />
      <flowRoot
         transform="matrix(0.76148077,0,0,0.77731624,0.57443442,-348.03216)"
         style="font-style:normal;font-weight:normal;font-size:40px;line-height:125%;font-family:sans-serif;letter-spacing:0px;word-spacing:0px;fill:#000000;fill-opacity:1;stroke:none;stroke-width:1px;stroke-linecap:butt;stroke-linejoin:miter;stroke-opacity:1"
         id="flowRoot890"
         xml:space="preserve"><flowRegion
           id="flowRegion892"><rect
             y="626.80542"
             x="138.57143"
             height="154.28572"
             width="274.28571"
             id="rect894" /></flowRegion><flowPara
           style="font-style:normal;font-variant:normal;font-weight:bold;font-stretch:normal;font-family:Arial;-inkscape-font-specification:'Arial Bold'"
           id="flowPara896">24</flowPara></flowRoot>      <text
         id="text900"
         y="149.14644"
         x="137.8506"
         style="font-style:normal;font-weight:normal;font-size:10.58333302px;line-height:125%;font-family:sans-serif;letter-spacing:0px;word-spacing:0px;fill:#000000;fill-opacity:1;stroke:none;stroke-width:0.26458332px;stroke-linecap:butt;stroke-linejoin:miter;stroke-opacity:1"
         xml:space="preserve"><tspan
           style="font-style:normal;font-variant:normal;font-weight:bold;font-stretch:normal;font-family:sans-serif;-inkscape-font-specification:'sans-serif Bold';stroke-width:0.26458332px"
           y="149.14644"
           x="137.8506"
           id="tspan898"
           sodipodi:role="line">HS</tspan></text>
    </g>
    <g
       id="g951"
       inkscape:export-xdpi="166.13"
       inkscape:export-ydpi="166.13">
      <g
         id="flowRoot4585"
         style="font-style:normal;font-weight:normal;font-size:40px;line-height:125%;font-family:sans-serif;letter-spacing:0px;word-spacing:0px;display:inline;opacity:0.91300001;fill:#000000;fill-opacity:1;stroke:none;stroke-width:1px;stroke-linecap:butt;stroke-linejoin:miter;stroke-opacity:1"
         transform="matrix(0.35184519,0,0,0.50909265,-11.7378,-187.88381)"
         aria-label="CHICO">
        <path
           inkscape:connector-curvature="0"
           id="path4593"
           style="font-style:normal;font-variant:normal;font-weight:bold;font-stretch:normal;font-size:96px;font-family:'Arial Black';-inkscape-font-specification:'Arial Black, Bold';fill:#ff0000;fill-opacity:1;stroke-width:1.02704191px"
           d="m 119.92383,509.23463 18.60937,5.93333 q -1.875,8.25723 -5.90625,13.79501 -4.03125,5.53778 -10.03125,8.35611 -5.95312,2.81834 -15.1875,2.81834 -11.203122,0 -18.328122,-3.41168 -7.078125,-3.46111 -12.234375,-12.11388 -5.15625,-8.65279 -5.15625,-22.15112 0,-17.99778 9.046875,-27.63946 9.09375,-9.69111 25.687502,-9.69111 12.98437,0 20.39062,5.53778 7.45313,5.53778 11.0625,17.00889 l -18.75,4.40056 q -0.98437,-3.31278 -2.0625,-4.84555 -1.78125,-2.57111 -4.35937,-3.95556 -2.57813,-1.38444 -5.76563,-1.38444 -7.218747,0 -11.062497,6.13111 -2.90625,4.54889 -2.90625,14.28944 0,12.06445 3.46875,16.5639 3.46875,4.45 9.749997,4.45 6.09375,0 9.1875,-3.60945 3.14063,-3.60944 4.54688,-10.48222 z" />
        <path
           sodipodi:nodetypes="ccccccccccccc"
           inkscape:connector-curvature="0"
           id="path4595"
           style="font-style:normal;font-variant:normal;font-weight:bold;font-stretch:normal;font-size:96px;font-family:'Arial Black';-inkscape-font-specification:'Arial Black, Bold';fill:#ff0000;fill-opacity:1;stroke-width:0.98091048px"
           d="m 148.89258,466.30205 h 21.23437 v 23.13755 l 23.74886,-2.04174 -0.54573,-21.09581 h 21.32812 l -0.27286,57.58199 -20.23667,1.85612 -0.54573,-24.14717 -23.47599,1.85613 -0.27286,26.37452 -20.96151,2.59858 z" />
        <path
           sodipodi:nodetypes="ccccc"
           inkscape:connector-curvature="0"
           id="path4597"
           style="font-style:normal;font-variant:normal;font-weight:bold;font-stretch:normal;font-size:96px;font-family:'Arial Black';-inkscape-font-specification:'Arial Black, Bold';fill:#ff0000;fill-opacity:1;stroke-width:0.8853904px"
           d="m 229.70508,466.30205 h 21.28125 l -0.27286,52.19923 -20.73553,2.04174 z" />
        <path
           inkscape:connector-curvature="0"
           id="path4599"
           style="font-style:normal;font-variant:normal;font-weight:bold;font-stretch:normal;font-size:96px;font-family:'Arial Black';-inkscape-font-specification:'Arial Black, Bold';fill:#ff0000;fill-opacity:1;stroke-width:0.84122109px"
           d="m 311.92383,494.71891 18.60937,3.98055 q -1.875,5.53959 -5.90625,9.25477 -4.03125,3.71518 -10.03125,5.60594 -5.95312,1.89076 -15.1875,1.89076 -11.20312,0 -18.32812,-2.28881 -7.07813,-2.32199 -12.23438,-8.12696 -5.15625,-5.80496 -5.15625,-14.86071 0,-12.07432 9.04688,-18.54272 9.09375,-6.50156 25.6875,-6.50156 12.98437,0 20.39062,3.71517 7.45313,3.71519 11.0625,11.41091 l -18.75,2.95225 q -0.98437,-2.22248 -2.0625,-3.25078 -1.78125,-1.7249 -4.35937,-2.6537 -2.57813,-0.9288 -5.76563,-0.9288 -7.21875,0 -11.0625,4.11323 -2.90625,3.05176 -2.90625,9.58649 0,8.09377 3.46875,11.11236 3.46875,2.98542 9.75,2.98542 6.09375,0 9.1875,-2.42151 3.14063,-2.4215 4.54688,-7.0323 z" />
        <path
           sodipodi:nodetypes="ssscsccscssscssscscs"
           inkscape:connector-curvature="0"
           id="path4601"
           style="font-style:normal;font-variant:normal;font-weight:bold;font-stretch:normal;font-size:96px;font-family:'Arial Black';-inkscape-font-specification:'Arial Black, Bold';fill:#ff0000;fill-opacity:1;stroke-width:0.81541824px"
           d="m 338.12695,488.78632 c 0,-7.45943 3.125,-13.26698 9.375,-17.42264 6.25,-4.15568 14.95313,-6.23351 26.10938,-6.23351 11.4375,0 20.25,2.04667 26.4375,6.14001 6.1875,4.07254 9.28125,9.78659 9.28125,17.14212 0,5.34004 -1.35938,9.72427 -4.07813,13.15269 -2.6875,3.40765 -6.59375,6.06728 -11.71875,7.97889 -5.09375,1.89082 -14.11839,2.63345 -21.74339,2.63345 -7.75,0 -11.50661,-0.61796 -16.60036,-2.25944 -5.0625,-1.64149 -9.17187,-4.23878 -12.32812,-7.79188 -3.15625,-3.5531 -4.73438,-7.99966 -4.73438,-13.33969 z m 21.23438,0.0623 c 0,4.61279 1.28125,7.92694 3.84375,9.94243 2.59375,2.0155 6.10937,3.02325 10.54687,3.02325 4.5625,0 8.09375,-0.98697 10.59375,-2.96091 2.5,-1.97394 3.75,-5.51664 3.75,-10.62812 0,-4.30112 -1.3125,-7.43865 -3.9375,-9.41259 -2.59375,-1.99472 -6.125,-2.99208 -10.59375,-2.99208 -4.28125,0 -7.71875,1.00775 -10.3125,3.02325 -2.59375,2.01549 -3.89062,5.35043 -3.89062,10.00477 z" />
      </g>
      <path
         sodipodi:nodetypes="cccc"
         inkscape:connector-curvature="0"
         id="rect4640"
         d="M 112.41655,73.857187 C 97.56978,82.700255 95.435439,95.232041 95.435439,95.232041 l -79.17663,0.110697 c 0,0 28.806188,-15.477135 96.157741,-21.485551 z"
         style="display:inline;opacity:1;fill:#000000;fill-opacity:1;stroke-width:0.18520834;stroke-miterlimit:4;stroke-dasharray:none" />
      <path
         sodipodi:nodetypes="csc"
         inkscape:connector-curvature="0"
         id="path4643"
         d="m 25.523042,93.139614 c 0,0 26.851054,-5.872385 37.933395,-7.322422 12.131483,-1.587309 36.117864,-2.047859 36.117864,-2.047859"
         style="display:inline;opacity:1;fill:none;fill-rule:evenodd;stroke:#fffff1;stroke-width:2.44985795;stroke-linecap:butt;stroke-linejoin:miter;stroke-miterlimit:4;stroke-dasharray:4.89971558, 2.4498578;stroke-dashoffset:0;stroke-opacity:1" />
      <text
         transform="matrix(0.94102128,0,-0.36534871,1.0626752,0,0)"
         id="text4665"
         y="86.165512"
         x="135.94632"
         style="font-style:normal;font-weight:normal;font-size:25.79961014px;line-height:125%;font-family:sans-serif;letter-spacing:0px;word-spacing:0px;fill:#000000;fill-opacity:1;stroke:none;stroke-width:0.64499021px;stroke-linecap:butt;stroke-linejoin:miter;stroke-opacity:1"
         xml:space="preserve"><tspan
           style="font-style:italic;font-variant:normal;font-weight:normal;font-stretch:normal;font-size:25.79961014px;font-family:'Brush Script MT';-inkscape-font-specification:'Brush Script MT, Italic';font-variant-ligatures:normal;font-variant-caps:normal;font-variant-numeric:normal;font-feature-settings:normal;text-align:start;writing-mode:lr-tb;text-anchor:start;fill:#000094;fill-opacity:1;stroke-width:0.64499021px"
           y="86.165512"
           x="135.94632"
           id="tspan4663"
           sodipodi:role="line">Car</tspan></text>
      <flowRoot
         transform="matrix(0.52915032,0,0,0.43811485,-16.262085,-62.225074)"
         style="font-style:normal;font-weight:normal;font-size:40px;line-height:125%;font-family:sans-serif;letter-spacing:0px;word-spacing:0px;fill:#ff0000;fill-opacity:1;stroke:none;stroke-width:1px;stroke-linecap:butt;stroke-linejoin:miter;stroke-opacity:1;"
         id="flowRoot919"
         xml:space="preserve"><flowRegion
           style="fill:#ff0000;fill-opacity:1;"
           id="flowRegion921"><rect
             style="fill:#ff0000;fill-opacity:1;"
             y="354.28958"
             x="58.420155"
             height="84.356827"
             width="435.54443"
             id="rect923" /></flowRegion><flowPara
           style="font-style:normal;font-variant:normal;font-weight:normal;font-stretch:normal;font-family:'Arial Black';-inkscape-font-specification:'Arial Black, ';fill:#ff0000;fill-opacity:1;"
           id="flowPara925">REBOQUE</flowPara></flowRoot>    </g>
  </g>
</svg>
